<svg width="256" height="256" viewBox="0 0 256 256" fill="none" xmlns="http://www.w3.org/2000/svg">
<circle cx="128" cy="128" r="122" stroke="#2CCC73" stroke-width="12"/>
<path d="M40.9916 135.075H39.674V136.08H40.9916V135.075Z" fill="#E6E6E6"/>
<path d="M165.618 136.08H163.022V135.075H165.618V136.08ZM160.425 136.08H157.829V135.075H160.425V136.08ZM155.232 136.08H152.636V135.075H155.232V136.08ZM150.04 136.08H147.443V135.075H150.04V136.08ZM144.847 136.08H142.251V135.075H144.847V136.08ZM139.654 136.08H137.058V135.075H139.654L139.654 136.08ZM134.461 136.08H131.865V135.075H134.461V136.08ZM129.269 136.08H126.672V135.075H129.269V136.08ZM124.076 136.08H121.48V135.075H124.076V136.08ZM118.883 136.08H116.287V135.075H118.883L118.883 136.08ZM113.69 136.08H111.094V135.075H113.69L113.69 136.08ZM108.498 136.08H105.901V135.075H108.498L108.498 136.08ZM103.305 136.08H100.708V135.075H103.305L103.305 136.08ZM98.112 136.08H95.5157V135.075H98.112L98.112 136.08ZM92.9192 136.08H90.3229V135.075H92.9192L92.9192 136.08ZM87.7265 136.08H85.1301V135.075H87.7265L87.7265 136.08ZM82.5337 136.08H79.9373V135.075H82.5337L82.5337 136.08ZM77.3409 136.08H74.7446V135.075H77.341L77.3409 136.08ZM72.1481 136.08H69.5518V135.075H72.1481L72.1481 136.08ZM66.9553 136.08H64.3591V135.075H66.9554L66.9553 136.08ZM61.7626 136.08H59.1663V135.075H61.7626L61.7626 136.08ZM56.5698 136.08H53.9735V135.075H56.5699L56.5698 136.08ZM51.3771 136.08H48.7807V135.075H51.3771L51.3771 136.08ZM46.1843 136.08H43.588V135.075H46.1844L46.1843 136.08Z" fill="#E6E6E6"/>
<path d="M40.9916 109.542H39.674V110.547H40.9916V109.542Z" fill="#E6E6E6"/>
<path d="M165.618 110.547H163.022V109.542H165.618V110.547ZM160.425 110.547H157.829V109.542H160.425V110.547ZM155.232 110.547H152.636V109.542H155.232V110.547ZM150.04 110.547H147.443V109.542H150.04V110.547ZM144.847 110.547H142.251V109.542H144.847V110.547ZM139.654 110.547H137.058V109.542H139.654L139.654 110.547ZM134.461 110.547H131.865V109.542H134.461V110.547ZM129.269 110.547H126.672V109.542H129.269V110.547ZM124.076 110.547H121.48V109.542H124.076V110.547ZM118.883 110.547H116.287V109.542H118.883L118.883 110.547ZM113.69 110.547H111.094V109.542H113.69L113.69 110.547ZM108.498 110.547H105.901V109.542H108.498L108.498 110.547ZM103.305 110.547H100.708V109.542H103.305L103.305 110.547ZM98.112 110.547H95.5157V109.542H98.112L98.112 110.547ZM92.9192 110.547H90.3229V109.542H92.9192L92.9192 110.547ZM87.7265 110.547H85.1301V109.542H87.7265L87.7265 110.547ZM82.5337 110.547H79.9373V109.542H82.5337L82.5337 110.547ZM77.3409 110.547H74.7446V109.542H77.341L77.3409 110.547ZM72.1481 110.547H69.5518V109.542H72.1481L72.1481 110.547ZM66.9553 110.547H64.3591V109.542H66.9554L66.9553 110.547ZM61.7626 110.547H59.1663V109.542H61.7626L61.7626 110.547ZM56.5698 110.547H53.9735V109.542H56.5699L56.5698 110.547ZM51.3771 110.547H48.7807V109.542H51.3771L51.3771 110.547ZM46.1843 110.547H43.588V109.542H46.1844L46.1843 110.547Z" fill="#E6E6E6"/>
<path d="M40.9916 84.0094H39.674V85.0146H40.9916V84.0094Z" fill="#E6E6E6"/>
<path d="M165.618 85.0146H163.022V84.0094H165.618V85.0146ZM160.425 85.0146H157.829V84.0094H160.425V85.0146ZM155.232 85.0146H152.636V84.0094H155.232V85.0146ZM150.04 85.0146H147.443V84.0094H150.04V85.0146ZM144.847 85.0146H142.251V84.0094H144.847V85.0146ZM139.654 85.0146H137.058V84.0094H139.654L139.654 85.0146ZM134.461 85.0146H131.865V84.0094H134.461V85.0146ZM129.269 85.0146H126.672V84.0094H129.269V85.0146ZM124.076 85.0146H121.48V84.0094H124.076V85.0146ZM118.883 85.0146H116.287V84.0094H118.883L118.883 85.0146ZM113.69 85.0146H111.094V84.0094H113.69L113.69 85.0146ZM108.498 85.0146H105.901V84.0094H108.498L108.498 85.0146ZM103.305 85.0146H100.708V84.0094H103.305L103.305 85.0146ZM98.112 85.0146H95.5157V84.0094H98.112L98.112 85.0146ZM92.9192 85.0146H90.3229V84.0094H92.9192L92.9192 85.0146ZM87.7265 85.0146H85.1301V84.0094H87.7265L87.7265 85.0146ZM82.5337 85.0146H79.9373V84.0094H82.5337L82.5337 85.0146ZM77.3409 85.0146H74.7446V84.0094H77.341L77.3409 85.0146ZM72.1481 85.0146H69.5518V84.0094H72.1481L72.1481 85.0146ZM66.9553 85.0146H64.3591V84.0094H66.9554L66.9553 85.0146ZM61.7626 85.0146H59.1663V84.0094H61.7626L61.7626 85.0146ZM56.5698 85.0146H53.9735V84.0094H56.5699L56.5698 85.0146ZM51.3771 85.0146H48.7807V84.0094H51.3771L51.3771 85.0146ZM46.1843 85.0146H43.588V84.0094H46.1844L46.1843 85.0146Z" fill="#E6E6E6"/>
<path d="M82.6047 135.376H71.8446V171.565H82.6047V135.376Z" fill="#3F3D56"/>
<path d="M84.5811 135.376H73.821V171.565H84.5811V135.376Z" fill="#2CCC73"/>
<path d="M108.078 109.844H97.3176V171.564H108.078V109.844Z" fill="#3F3D56"/>
<path d="M110.054 109.844H99.2939V171.564H110.054V109.844Z" fill="#2CCC73"/>
<path d="M133.551 84.311H122.791V171.564H133.551V84.311Z" fill="#3F3D56"/>
<path d="M135.527 84.311H124.767V171.564H135.527V84.311Z" fill="#2CCC73"/>
<path d="M39.7838 86.9246C41.2391 86.9246 42.4189 85.8444 42.4189 84.512C42.4189 83.1796 41.2391 82.0995 39.7838 82.0995C38.3284 82.0995 37.1487 83.1796 37.1487 84.512C37.1487 85.8444 38.3284 86.9246 39.7838 86.9246Z" fill="#E6E6E6"/>
<path d="M39.7838 112.457C41.2391 112.457 42.4189 111.377 42.4189 110.045C42.4189 108.712 41.2391 107.632 39.7838 107.632C38.3284 107.632 37.1487 108.712 37.1487 110.045C37.1487 111.377 38.3284 112.457 39.7838 112.457Z" fill="#E6E6E6"/>
<path d="M39.7838 137.99C41.2391 137.99 42.4189 136.91 42.4189 135.577C42.4189 134.245 41.2391 133.165 39.7838 133.165C38.3284 133.165 37.1487 134.245 37.1487 135.577C37.1487 136.91 38.3284 137.99 39.7838 137.99Z" fill="#E6E6E6"/>
<path d="M226 171.339H31V171.79H226V171.339Z" fill="#3F3D56"/>
<path d="M197.089 89.8645C201.217 89.8645 204.563 86.8008 204.563 83.0215C204.563 79.2422 201.217 76.1785 197.089 76.1785C192.961 76.1785 189.615 79.2422 189.615 83.0215C189.615 86.8008 192.961 89.8645 197.089 89.8645Z" fill="#2F2E41"/>
<path d="M179.009 128.056L178.605 130.275C178.605 130.275 176.383 137.858 179.211 137.488C182.039 137.118 181.029 130.645 181.029 130.645L181.433 128.611L179.009 128.056Z" fill="#FFB9B9"/>
<path d="M203.957 117.606H187.595C187.595 117.606 182.948 124.265 184.766 135.916C186.585 147.568 185.776 173.645 185.776 173.645H192.039L196.281 132.772L205.17 173.645L211.028 173.09L207.796 125.929L203.957 117.606Z" fill="#2F2E41"/>
<path d="M187.494 172.998L187.292 179.841C187.292 179.841 184.665 186.684 188.504 185.944C192.342 185.204 192.746 183.725 192.746 183.17C192.746 182.615 191.736 172.998 191.736 172.998H187.494Z" fill="#2F2E41"/>
<path d="M210.001 172.478L211.158 179.796C211.158 179.796 214.719 186.275 210.808 185.991C206.898 185.707 206.291 184.287 206.213 183.736C206.136 183.186 205.794 172.975 205.794 172.975L210.001 172.478Z" fill="#2F2E41"/>
<path d="M197.19 89.7721C200.202 89.7721 202.644 87.5364 202.644 84.7785C202.644 82.0207 200.202 79.785 197.19 79.785C194.178 79.785 191.736 82.0207 191.736 84.7785C191.736 87.5364 194.178 89.7721 197.19 89.7721Z" fill="#FFB9B9"/>
<path d="M201.331 86.9055L203.553 93.9334L199.109 98.0021L196.685 94.1184L195.877 88.5699L201.331 86.9055Z" fill="#FFB9B9"/>
<path d="M203.25 91.6215C203.25 91.6215 202.953 89.7561 202.294 89.949C201.634 90.1419 195.776 91.4366 195.776 91.9914V94.3957L190.928 111.596L189.716 118.624L202.442 118.439L204.462 94.0258L203.25 91.6215Z" fill="#E6E6E6"/>
<path d="M202.139 89.6796L203.553 90.0495L205.877 92.1764C205.877 92.1764 211.533 91.2516 212.341 93.6559C213.149 96.0602 207.897 126.022 207.897 126.022C207.897 126.022 199.008 128.796 197.594 121.768C196.18 114.74 196.281 108.729 199.109 104.29C201.937 99.8516 202.139 89.6796 202.139 89.6796Z" fill="#2F2E41"/>
<path d="M196.279 91.33L195.473 91.714L194.766 94.5807C194.766 94.5807 188.908 96.0602 188.504 98.0946C188.1 100.129 188.706 111.226 188.706 111.226C188.706 111.226 183.049 121.768 184.059 126.206C184.059 126.206 186.484 128.056 188.302 125.652C190.12 123.247 194.564 108.822 194.766 107.897C194.968 106.972 197.186 91.5933 196.279 91.33Z" fill="#2F2E41"/>
<path d="M190.726 97.3548L188.563 97.8918L187.09 101.793L184.059 111.781L178.201 128.241L182.241 129.905L188.706 117.884L190.726 97.3548Z" fill="#2F2E41"/>
<path d="M201.331 84.1312C197.858 82.9843 196.683 82.2798 192.847 84.1312L191.433 78.9527H202.745L201.331 84.1312Z" fill="#2F2E41"/>
<path d="M196.483 79.6925C198.826 79.6925 200.725 77.9536 200.725 75.8086C200.725 73.6636 198.826 71.9247 196.483 71.9247C194.14 71.9247 192.241 73.6636 192.241 75.8086C192.241 77.9536 194.14 79.6925 196.483 79.6925Z" fill="#2F2E41"/>
<path d="M191.433 74.8839C191.433 73.8864 191.853 72.9275 192.606 72.206C193.358 71.4846 194.385 71.056 195.473 71.0093C195.406 71.0064 195.339 71 195.271 71C194.146 71 193.067 71.4092 192.271 72.1376C191.476 72.8659 191.029 73.8538 191.029 74.8839C191.029 75.9139 191.476 76.9018 192.271 77.6302C193.067 78.3585 194.146 78.7677 195.271 78.7677C195.339 78.7677 195.406 78.7613 195.473 78.7584C194.385 78.7117 193.358 78.2832 192.606 77.5617C191.853 76.8403 191.433 75.8813 191.433 74.8839Z" fill="#2F2E41"/>
<path d="M203.904 128.721H188.147V134.86H203.904V128.721Z" fill="#2CCC73"/>
<path opacity="0.1" d="M203.904 128.721H188.147V134.86H203.904V128.721Z" fill="black"/>
<path opacity="0.2" d="M196.026 133.479C197.044 133.479 197.87 132.723 197.87 131.791C197.87 130.858 197.044 130.103 196.026 130.103C195.008 130.103 194.182 130.858 194.182 131.791C194.182 132.723 195.008 133.479 196.026 133.479Z" fill="black"/>
<path opacity="0.2" d="M191.835 134.4H188.818V129.182H192.003V129.489H189.153V134.093H191.835V134.4Z" fill="black"/>
<path opacity="0.2" d="M203.234 134.4H200.217V134.093H202.898V129.489H200.049V129.182H203.234V134.4Z" fill="black"/>
<path d="M201.941 129.3L186.9 133.6L188.899 139.46L203.939 135.16L201.941 129.3Z" fill="#2CCC73"/>
<path opacity="0.2" d="M195.42 136.068C196.438 136.068 197.264 135.312 197.264 134.38C197.264 133.448 196.438 132.692 195.42 132.692C194.401 132.692 193.576 133.448 193.576 134.38C193.576 135.312 194.401 136.068 195.42 136.068Z" fill="black"/>
<path opacity="0.2" d="M192.269 138.014L189.389 138.837L187.69 133.857L190.73 132.988L190.83 133.281L188.11 134.058L189.609 138.453L192.169 137.721L192.269 138.014Z" fill="black"/>
<path opacity="0.2" d="M203.149 134.903L200.269 135.727L200.17 135.434L202.73 134.702L201.231 130.307L198.511 131.085L198.411 130.792L201.451 129.923L203.149 134.903Z" fill="black"/>
<path d="M203.886 124.995L202.961 127.08C202.961 127.08 200.519 134.605 198.321 132.935C196.122 131.264 200.684 126.233 200.684 126.233L201.503 124.306L203.886 124.995Z" fill="#FFB9B9"/>
<path d="M209.513 94.2107L212.341 93.6559C212.743 94.7455 213.068 95.8574 213.316 96.9849C213.72 98.8344 213.096 113.445 212.692 114.925C212.288 116.404 204.963 126.263 204.963 126.263L198.37 124.953L207.897 111.781L209.513 94.2107Z" fill="#2F2E41"/>
<path opacity="0.2" d="M207.993 103.611L206.236 112.457L199.649 124.721L205.578 111.854L207.993 103.611Z" fill="black"/>
</svg>
