<svg width="1448" height="209" viewBox="0 0 1448 209" fill="none" xmlns="http://www.w3.org/2000/svg">
<g filter="url(#filter0_d)">
<path d="M4 142.933H28C52 142.933 100 142.933 148 133.375C196 124.173 244 104.52 292 95.3187C340 85.76 388 85.76 436 90.4947C484 95.5867 532 104.52 580 128.64C628 152.76 676 190.28 724 176.255C772 161.693 820 95.5867 868 85.76C916 75.9333 964 124.173 1012 157.227C1060 190.28 1108 209.933 1156 195.372C1204 181.347 1252 133.107 1300 119.081C1348 104.52 1396 124.173 1420 133.375L1444 142.933V0H1420C1396 0 1348 0 1300 0C1252 0 1204 0 1156 0C1108 0 1060 0 1012 0C964 0 916 0 868 0C820 0 772 0 724 0C676 0 628 0 580 0C532 0 484 0 436 0C388 0 340 0 292 0C244 0 196 0 148 0C100 0 52 0 28 0H4V142.933Z" fill="#68B1F2"/>
</g>
<defs>
<filter id="filter0_d" x="0" y="0" width="1448" height="209" filterUnits="userSpaceOnUse" color-interpolation-filters="sRGB">
<feFlood flood-opacity="0" result="BackgroundImageFix"/>
<feColorMatrix in="SourceAlpha" type="matrix" values="0 0 0 0 0 0 0 0 0 0 0 0 0 0 0 0 0 0 127 0"/>
<feOffset dy="4"/>
<feGaussianBlur stdDeviation="2"/>
<feColorMatrix type="matrix" values="0 0 0 0 0 0 0 0 0 0 0 0 0 0 0 0 0 0 0.25 0"/>
<feBlend mode="normal" in2="BackgroundImageFix" result="effect1_dropShadow"/>
<feBlend mode="normal" in="SourceGraphic" in2="effect1_dropShadow" result="shape"/>
</filter>
</defs>
</svg>
